M48
;GenerationSoftware,Autodesk,EAGLE,9.7.0*%
;CreationDate,2024-11-18T23:38:15Z*%
FMAT,2
ICI,OFF
METRIC,TZ,000.000
T5C0.350
T4C0.813
T3C1.016
T2C1.500
T1C3.302
%
G90
M71
T1
X2540Y31750
X43180Y31750
X2540Y11430
X43180Y11430
T2
X3000Y39270
X6500Y39270
X10000Y39270
X13500Y39270
X17000Y39270
X20500Y39270
X24000Y39270
X27500Y39270
X31000Y39270
X34500Y39270
X38000Y39270
X41500Y39270
X41500Y4000
X43180Y23312
X43180Y19812
X38000Y4000
X34500Y4000
X31000Y4000
X27500Y4000
X24000Y4000
X20500Y4000
X17000Y4000
X13500Y4000
X10000Y4000
X6500Y4000
X3000Y4000
T3
X33020Y13970
X35560Y13970
X13811Y16828
X16351Y16828
X26829Y16828
X24289Y16828
X30480Y33020
X27940Y33020
X25400Y33020
X22860Y33020
X43180Y16312
X43180Y26812
X16510Y10160
X13970Y10160
X24130Y10160
X26670Y10160
X35560Y29210
X33020Y29210
X30480Y29210
X27940Y29210
X25400Y29210
X22860Y29210
X20320Y29210
X17780Y29210
X15240Y29210
X12700Y29210
X10160Y29210
X7620Y29210
X7620Y13970
X10160Y13970
X12700Y13970
X15240Y13970
X17780Y13970
X20320Y13970
X22860Y13970
X25400Y13970
X27940Y13970
X30480Y13970
T4
X34528Y10795
X32528Y10795
T5
X4826Y36576
X8382Y36576
X11684Y36576
X15494Y36576
X18796Y36576
X22352Y36576
X25654Y36576
X36068Y36576
X36830Y33020
X6350Y31750
X7620Y26670
X4826Y6858
X11938Y6858
X15494Y6858
X35916Y26721
X22860Y25400
X20980Y22860
X15545Y21895
X25400Y11786
X24130Y30988
X6350Y11684
X1778Y36576
X1778Y6858
X36068Y6858
X32766Y6858
X29210Y6858
X25654Y6858
X8382Y6858
X13360Y24130
X35966Y24943
X13360Y21590
X31750Y24130
X22352Y6858
X18796Y6858
X28550Y20980
X13360Y19050
X24790Y19050
X13919Y20371
X8890Y16510
X20980Y17170
X20980Y20980
X26670Y25400
M30