G04 EAGLE Gerber RS-274X export*
G75*
%MOMM*%
%FSLAX34Y34*%
%LPD*%
%INBottom Copper*%
%IPPOS*%
%AMOC8*
5,1,8,0,0,1.08239X$1,22.5*%
G01*
G04 Define Apertures*
%ADD10C,1.879600*%
%ADD11C,2.250000*%
%ADD12R,2.000000X1.200000*%
%ADD13R,1.350000X0.600000*%
%ADD14P,1.81452X8X202.5*%
%ADD15C,0.756400*%
%ADD16C,0.508000*%
%ADD17C,0.812800*%
%ADD18C,0.304800*%
G36*
X444894Y10593D02*
X444500Y10541D01*
X12700Y10541D01*
X12306Y10593D01*
X11988Y10678D01*
X11305Y11072D01*
X11072Y11305D01*
X10678Y11988D01*
X10593Y12306D01*
X10541Y12700D01*
X10541Y89443D01*
X10722Y90163D01*
X11109Y90630D01*
X11647Y90909D01*
X12252Y90956D01*
X12827Y90763D01*
X15106Y89448D01*
X21889Y87630D01*
X28911Y87630D01*
X35694Y89448D01*
X41776Y92959D01*
X46741Y97924D01*
X50253Y104006D01*
X52070Y110789D01*
X52070Y117811D01*
X50253Y124594D01*
X47636Y129126D01*
X47434Y129971D01*
X47587Y130558D01*
X47957Y131039D01*
X48485Y131337D01*
X48783Y131434D01*
X54739Y135761D01*
X59066Y141717D01*
X61341Y148719D01*
X61341Y178852D01*
X61443Y179401D01*
X61770Y179912D01*
X62271Y180255D01*
X62865Y180376D01*
X75481Y180376D01*
X76374Y181269D01*
X76374Y194531D01*
X75481Y195424D01*
X62865Y195424D01*
X62316Y195526D01*
X61805Y195853D01*
X61462Y196354D01*
X61341Y196948D01*
X61341Y234852D01*
X61443Y235401D01*
X61770Y235912D01*
X62271Y236255D01*
X62865Y236376D01*
X75481Y236376D01*
X76374Y237269D01*
X76374Y250531D01*
X75481Y251424D01*
X62865Y251424D01*
X62316Y251526D01*
X61805Y251853D01*
X61462Y252354D01*
X61341Y252948D01*
X61341Y283081D01*
X59066Y290083D01*
X54739Y296039D01*
X48783Y300366D01*
X48485Y300463D01*
X47769Y300956D01*
X47490Y301494D01*
X47443Y302099D01*
X47636Y302674D01*
X50253Y307206D01*
X52070Y313989D01*
X52070Y321011D01*
X50253Y327794D01*
X46741Y333876D01*
X41776Y338841D01*
X35694Y342353D01*
X28911Y344170D01*
X21889Y344170D01*
X15106Y342353D01*
X12827Y341037D01*
X12114Y340833D01*
X11516Y340935D01*
X11005Y341262D01*
X10662Y341762D01*
X10541Y342357D01*
X10541Y419100D01*
X10593Y419494D01*
X10678Y419812D01*
X11072Y420495D01*
X11305Y420728D01*
X11988Y421122D01*
X12306Y421207D01*
X12700Y421259D01*
X444500Y421259D01*
X444894Y421207D01*
X445212Y421122D01*
X445895Y420728D01*
X446128Y420495D01*
X446522Y419812D01*
X446607Y419494D01*
X446659Y419100D01*
X446659Y342357D01*
X446478Y341637D01*
X446091Y341170D01*
X445553Y340891D01*
X444948Y340844D01*
X444373Y341037D01*
X442094Y342353D01*
X435311Y344170D01*
X428289Y344170D01*
X421506Y342353D01*
X415424Y338841D01*
X410459Y333876D01*
X406948Y327794D01*
X405130Y321011D01*
X405130Y313989D01*
X406948Y307206D01*
X410459Y301124D01*
X415424Y296159D01*
X421506Y292648D01*
X428289Y290830D01*
X435311Y290830D01*
X442094Y292648D01*
X444373Y293963D01*
X445086Y294167D01*
X445684Y294065D01*
X446195Y293738D01*
X446538Y293238D01*
X446659Y292643D01*
X446659Y271104D01*
X446569Y270589D01*
X446255Y270070D01*
X445763Y269716D01*
X445171Y269581D01*
X444574Y269687D01*
X444066Y270018D01*
X443727Y270521D01*
X441921Y274882D01*
X438562Y278240D01*
X434175Y280058D01*
X433324Y280058D01*
X433324Y256182D01*
X434175Y256182D01*
X438562Y257999D01*
X441921Y261358D01*
X443727Y265719D01*
X444007Y266160D01*
X444496Y266519D01*
X445086Y266659D01*
X445684Y266557D01*
X446195Y266230D01*
X446538Y265730D01*
X446659Y265136D01*
X446659Y247418D01*
X446557Y246869D01*
X446230Y246358D01*
X445729Y246015D01*
X445135Y245894D01*
X418009Y245894D01*
X413314Y243949D01*
X409721Y240356D01*
X409428Y239649D01*
X409115Y239172D01*
X408614Y238829D01*
X408020Y238708D01*
X397109Y238708D01*
X395055Y237857D01*
X376263Y219065D01*
X375412Y217011D01*
X375412Y168046D01*
X375301Y167474D01*
X374966Y166968D01*
X359066Y151068D01*
X358583Y150743D01*
X357988Y150622D01*
X353428Y150622D01*
X349413Y148959D01*
X346341Y145887D01*
X344858Y142307D01*
X344570Y141856D01*
X344078Y141501D01*
X343486Y141366D01*
X342889Y141473D01*
X342381Y141804D01*
X342042Y142307D01*
X340321Y146462D01*
X336962Y149821D01*
X332575Y151638D01*
X331724Y151638D01*
X331724Y127762D01*
X332575Y127762D01*
X336962Y129579D01*
X340321Y132938D01*
X342042Y137093D01*
X342330Y137544D01*
X342822Y137899D01*
X343413Y138034D01*
X344011Y137927D01*
X344519Y137596D01*
X344858Y137093D01*
X346341Y133513D01*
X349413Y130441D01*
X353428Y128778D01*
X357773Y128778D01*
X361787Y130441D01*
X364859Y133513D01*
X366522Y137528D01*
X366522Y142088D01*
X366633Y142660D01*
X366968Y143166D01*
X385737Y161935D01*
X386588Y163989D01*
X386588Y212954D01*
X386699Y213526D01*
X387034Y214032D01*
X400088Y227086D01*
X400571Y227411D01*
X401166Y227532D01*
X408020Y227532D01*
X408581Y227425D01*
X409089Y227094D01*
X409428Y226591D01*
X409721Y225884D01*
X413314Y222291D01*
X418009Y220346D01*
X445135Y220346D01*
X445684Y220244D01*
X446195Y219917D01*
X446538Y219416D01*
X446659Y218822D01*
X446659Y213434D01*
X446557Y212885D01*
X446230Y212374D01*
X445729Y212031D01*
X445135Y211910D01*
X433324Y211910D01*
X433324Y184330D01*
X445135Y184330D01*
X445684Y184228D01*
X446195Y183901D01*
X446538Y183400D01*
X446659Y182806D01*
X446659Y139157D01*
X446478Y138437D01*
X446091Y137970D01*
X445553Y137691D01*
X444948Y137644D01*
X444373Y137837D01*
X442094Y139153D01*
X435311Y140970D01*
X428289Y140970D01*
X421506Y139153D01*
X415424Y135641D01*
X410459Y130676D01*
X406948Y124594D01*
X405130Y117811D01*
X405130Y110789D01*
X406948Y104006D01*
X410459Y97924D01*
X415424Y92959D01*
X421506Y89448D01*
X428289Y87630D01*
X435311Y87630D01*
X442094Y89448D01*
X444373Y90763D01*
X445086Y90967D01*
X445684Y90865D01*
X446195Y90538D01*
X446538Y90038D01*
X446659Y89443D01*
X446659Y12700D01*
X446607Y12306D01*
X446522Y11988D01*
X446128Y11305D01*
X445895Y11072D01*
X445212Y10678D01*
X444894Y10593D01*
G37*
%LPC*%
G36*
X296210Y394224D02*
X308476Y394224D01*
X308476Y417740D01*
X307257Y417740D01*
X302189Y415641D01*
X298309Y411761D01*
X296210Y406693D01*
X296210Y394224D01*
G37*
G36*
X311524Y394224D02*
X323790Y394224D01*
X323790Y406693D01*
X321691Y411761D01*
X317811Y415641D01*
X312743Y417740D01*
X311524Y417740D01*
X311524Y394224D01*
G37*
G36*
X132459Y368676D02*
X137541Y368676D01*
X142236Y370621D01*
X145829Y374214D01*
X147774Y378909D01*
X147774Y406491D01*
X145829Y411186D01*
X142236Y414779D01*
X137541Y416724D01*
X132459Y416724D01*
X127764Y414779D01*
X124171Y411186D01*
X122226Y406491D01*
X122226Y378909D01*
X124171Y374214D01*
X127764Y370621D01*
X132459Y368676D01*
G37*
G36*
X62459Y368676D02*
X67541Y368676D01*
X72236Y370621D01*
X75829Y374214D01*
X77774Y378909D01*
X77774Y406491D01*
X75829Y411186D01*
X72236Y414779D01*
X67541Y416724D01*
X62459Y416724D01*
X57764Y414779D01*
X54171Y411186D01*
X52226Y406491D01*
X52226Y378909D01*
X54171Y374214D01*
X57764Y370621D01*
X62459Y368676D01*
G37*
G36*
X97459Y368676D02*
X102541Y368676D01*
X107236Y370621D01*
X110829Y374214D01*
X112774Y378909D01*
X112774Y406491D01*
X110829Y411186D01*
X107236Y414779D01*
X102541Y416724D01*
X97459Y416724D01*
X92764Y414779D01*
X89171Y411186D01*
X87226Y406491D01*
X87226Y378909D01*
X89171Y374214D01*
X92764Y370621D01*
X97459Y368676D01*
G37*
G36*
X27459Y368676D02*
X32541Y368676D01*
X37236Y370621D01*
X40829Y374214D01*
X42774Y378909D01*
X42774Y406491D01*
X40829Y411186D01*
X37236Y414779D01*
X32541Y416724D01*
X27459Y416724D01*
X22764Y414779D01*
X19171Y411186D01*
X17226Y406491D01*
X17226Y378909D01*
X19171Y374214D01*
X22764Y370621D01*
X27459Y368676D01*
G37*
G36*
X412459Y368676D02*
X417541Y368676D01*
X422236Y370621D01*
X425829Y374214D01*
X427774Y378909D01*
X427774Y406491D01*
X425829Y411186D01*
X422236Y414779D01*
X417541Y416724D01*
X412459Y416724D01*
X407764Y414779D01*
X404171Y411186D01*
X402226Y406491D01*
X402226Y378909D01*
X404171Y374214D01*
X407764Y370621D01*
X412459Y368676D01*
G37*
G36*
X237459Y368676D02*
X242541Y368676D01*
X247236Y370621D01*
X250829Y374214D01*
X252774Y378909D01*
X252774Y406491D01*
X250829Y411186D01*
X247236Y414779D01*
X242541Y416724D01*
X237459Y416724D01*
X232764Y414779D01*
X229171Y411186D01*
X227226Y406491D01*
X227226Y378909D01*
X229171Y374214D01*
X232764Y370621D01*
X237459Y368676D01*
G37*
G36*
X377459Y368676D02*
X382541Y368676D01*
X387236Y370621D01*
X390829Y374214D01*
X392774Y378909D01*
X392774Y406491D01*
X390829Y411186D01*
X387236Y414779D01*
X382541Y416724D01*
X377459Y416724D01*
X372764Y414779D01*
X369171Y411186D01*
X367226Y406491D01*
X367226Y378909D01*
X369171Y374214D01*
X372764Y370621D01*
X377459Y368676D01*
G37*
G36*
X342459Y368676D02*
X347541Y368676D01*
X352236Y370621D01*
X355829Y374214D01*
X357774Y378909D01*
X357774Y406491D01*
X355829Y411186D01*
X352236Y414779D01*
X347541Y416724D01*
X342459Y416724D01*
X337764Y414779D01*
X334171Y411186D01*
X332226Y406491D01*
X332226Y378909D01*
X334171Y374214D01*
X337764Y370621D01*
X342459Y368676D01*
G37*
G36*
X272459Y368676D02*
X277541Y368676D01*
X282236Y370621D01*
X285829Y374214D01*
X287774Y378909D01*
X287774Y406491D01*
X285829Y411186D01*
X282236Y414779D01*
X277541Y416724D01*
X272459Y416724D01*
X267764Y414779D01*
X264171Y411186D01*
X262226Y406491D01*
X262226Y378909D01*
X264171Y374214D01*
X267764Y370621D01*
X272459Y368676D01*
G37*
G36*
X202459Y368676D02*
X207541Y368676D01*
X212236Y370621D01*
X215829Y374214D01*
X217774Y378909D01*
X217774Y406491D01*
X215829Y411186D01*
X212236Y414779D01*
X207541Y416724D01*
X202459Y416724D01*
X197764Y414779D01*
X194171Y411186D01*
X192226Y406491D01*
X192226Y378909D01*
X194171Y374214D01*
X197764Y370621D01*
X202459Y368676D01*
G37*
G36*
X167459Y368676D02*
X172541Y368676D01*
X177236Y370621D01*
X180829Y374214D01*
X182774Y378909D01*
X182774Y406491D01*
X180829Y411186D01*
X177236Y414779D01*
X172541Y416724D01*
X167459Y416724D01*
X162764Y414779D01*
X159171Y411186D01*
X157226Y406491D01*
X157226Y378909D01*
X159171Y374214D01*
X162764Y370621D01*
X167459Y368676D01*
G37*
G36*
X307257Y367660D02*
X308476Y367660D01*
X308476Y391176D01*
X296210Y391176D01*
X296210Y378707D01*
X298309Y373639D01*
X302189Y369759D01*
X307257Y367660D01*
G37*
G36*
X311524Y367660D02*
X312743Y367660D01*
X317811Y369759D01*
X321691Y373639D01*
X323790Y378707D01*
X323790Y391176D01*
X311524Y391176D01*
X311524Y367660D01*
G37*
G36*
X306324Y331724D02*
X316738Y331724D01*
X316738Y332575D01*
X314921Y336962D01*
X311562Y340321D01*
X307175Y342138D01*
X306324Y342138D01*
X306324Y331724D01*
G37*
G36*
X132549Y235994D02*
X134659Y235994D01*
X136625Y236808D01*
X137081Y237115D01*
X137675Y237236D01*
X313429Y237236D01*
X314001Y237125D01*
X314478Y236809D01*
X316445Y235994D01*
X318555Y235994D01*
X320521Y236808D01*
X320977Y237115D01*
X321571Y237236D01*
X353219Y237236D01*
X359659Y243676D01*
X360142Y244001D01*
X360703Y244115D01*
X362670Y244930D01*
X364162Y246422D01*
X364976Y248388D01*
X365081Y248927D01*
X365416Y249433D01*
X385064Y269081D01*
X385064Y298355D01*
X368205Y315214D01*
X300765Y315214D01*
X300193Y315325D01*
X299687Y315660D01*
X298727Y316620D01*
X298426Y317048D01*
X298282Y317637D01*
X298379Y318236D01*
X298702Y318750D01*
X299199Y319096D01*
X299793Y319222D01*
X300388Y319106D01*
X302425Y318262D01*
X303276Y318262D01*
X303276Y342138D01*
X302425Y342138D01*
X298038Y340321D01*
X294679Y336962D01*
X292958Y332807D01*
X292670Y332356D01*
X292178Y332001D01*
X291587Y331866D01*
X290989Y331973D01*
X290481Y332304D01*
X290142Y332807D01*
X288659Y336387D01*
X285587Y339459D01*
X281573Y341122D01*
X277228Y341122D01*
X273213Y339459D01*
X270141Y336387D01*
X268478Y332373D01*
X268478Y328028D01*
X270141Y324013D01*
X273213Y320941D01*
X277228Y319278D01*
X281572Y319278D01*
X282755Y319768D01*
X283313Y319883D01*
X283910Y319772D01*
X284415Y319437D01*
X296767Y307086D01*
X364207Y307086D01*
X364779Y306975D01*
X365285Y306640D01*
X376490Y295435D01*
X376815Y294952D01*
X376936Y294357D01*
X376936Y273079D01*
X376825Y272507D01*
X376490Y272001D01*
X359669Y255180D01*
X359186Y254855D01*
X358625Y254741D01*
X356658Y253926D01*
X355166Y252434D01*
X354352Y250468D01*
X354247Y249929D01*
X353912Y249423D01*
X350299Y245810D01*
X349816Y245485D01*
X349221Y245364D01*
X321571Y245364D01*
X320999Y245475D01*
X320522Y245791D01*
X318555Y246606D01*
X316445Y246606D01*
X314479Y245792D01*
X314023Y245485D01*
X313429Y245364D01*
X137675Y245364D01*
X137103Y245475D01*
X136626Y245791D01*
X134659Y246606D01*
X132549Y246606D01*
X130598Y245798D01*
X129106Y244306D01*
X128298Y242355D01*
X128298Y240245D01*
X129106Y238294D01*
X130598Y236802D01*
X132549Y235994D01*
G37*
G36*
X251828Y319278D02*
X256173Y319278D01*
X260187Y320941D01*
X263259Y324013D01*
X264922Y328028D01*
X264922Y332373D01*
X263259Y336387D01*
X260187Y339459D01*
X256173Y341122D01*
X251828Y341122D01*
X247813Y339459D01*
X244741Y336387D01*
X243078Y332373D01*
X243078Y328028D01*
X244741Y324013D01*
X247813Y320941D01*
X251828Y319278D01*
G37*
G36*
X226428Y319278D02*
X230773Y319278D01*
X234787Y320941D01*
X237859Y324013D01*
X239522Y328028D01*
X239522Y332373D01*
X237859Y336387D01*
X234787Y339459D01*
X230773Y341122D01*
X226428Y341122D01*
X222413Y339459D01*
X219341Y336387D01*
X217678Y332373D01*
X217678Y328028D01*
X219341Y324013D01*
X222413Y320941D01*
X226428Y319278D01*
G37*
G36*
X306324Y318262D02*
X307175Y318262D01*
X311562Y320079D01*
X314921Y323438D01*
X316738Y327825D01*
X316738Y328676D01*
X306324Y328676D01*
X306324Y318262D01*
G37*
G36*
X280924Y280162D02*
X281775Y280162D01*
X286162Y281979D01*
X289521Y285338D01*
X291242Y289493D01*
X291530Y289944D01*
X292022Y290299D01*
X292613Y290434D01*
X293211Y290327D01*
X293719Y289996D01*
X294058Y289493D01*
X295541Y285913D01*
X298613Y282841D01*
X302628Y281178D01*
X306973Y281178D01*
X310987Y282841D01*
X314059Y285913D01*
X315722Y289928D01*
X315722Y294273D01*
X314059Y298287D01*
X310987Y301359D01*
X306973Y303022D01*
X302628Y303022D01*
X298613Y301359D01*
X295541Y298287D01*
X294058Y294707D01*
X293770Y294256D01*
X293278Y293901D01*
X292686Y293766D01*
X292089Y293873D01*
X291581Y294204D01*
X291242Y294707D01*
X289521Y298862D01*
X286162Y302221D01*
X281775Y304038D01*
X280924Y304038D01*
X280924Y280162D01*
G37*
G36*
X277025Y280162D02*
X277876Y280162D01*
X277876Y304038D01*
X277025Y304038D01*
X272638Y302221D01*
X269279Y298862D01*
X267558Y294707D01*
X267270Y294256D01*
X266778Y293901D01*
X266187Y293766D01*
X265589Y293873D01*
X265081Y294204D01*
X264742Y294707D01*
X263259Y298287D01*
X260187Y301359D01*
X256173Y303022D01*
X251828Y303022D01*
X247813Y301359D01*
X244741Y298287D01*
X243078Y294273D01*
X243078Y289928D01*
X244741Y285913D01*
X247813Y282841D01*
X251828Y281178D01*
X256173Y281178D01*
X260187Y282841D01*
X263259Y285913D01*
X264742Y289493D01*
X265030Y289944D01*
X265522Y290299D01*
X266114Y290434D01*
X266711Y290327D01*
X267219Y289996D01*
X267558Y289493D01*
X269279Y285338D01*
X272638Y281979D01*
X277025Y280162D01*
G37*
G36*
X124828Y281178D02*
X129173Y281178D01*
X133187Y282841D01*
X136259Y285913D01*
X137922Y289928D01*
X137922Y294273D01*
X136259Y298287D01*
X133187Y301359D01*
X129173Y303022D01*
X124828Y303022D01*
X120813Y301359D01*
X117741Y298287D01*
X116078Y294273D01*
X116078Y289928D01*
X117741Y285913D01*
X120813Y282841D01*
X124828Y281178D01*
G37*
G36*
X353428Y281178D02*
X357773Y281178D01*
X361787Y282841D01*
X364859Y285913D01*
X366522Y289928D01*
X366522Y294273D01*
X364859Y298287D01*
X361787Y301359D01*
X357773Y303022D01*
X353428Y303022D01*
X349413Y301359D01*
X346341Y298287D01*
X344678Y294273D01*
X344678Y289928D01*
X346341Y285913D01*
X349413Y282841D01*
X353428Y281178D01*
G37*
G36*
X328028Y281178D02*
X332373Y281178D01*
X336387Y282841D01*
X339459Y285913D01*
X341122Y289928D01*
X341122Y294273D01*
X339459Y298287D01*
X336387Y301359D01*
X332373Y303022D01*
X328028Y303022D01*
X324013Y301359D01*
X320941Y298287D01*
X319278Y294273D01*
X319278Y289928D01*
X320941Y285913D01*
X324013Y282841D01*
X328028Y281178D01*
G37*
G36*
X226428Y281178D02*
X230773Y281178D01*
X234787Y282841D01*
X237859Y285913D01*
X239522Y289928D01*
X239522Y294273D01*
X237859Y298287D01*
X234787Y301359D01*
X230773Y303022D01*
X226428Y303022D01*
X222413Y301359D01*
X219341Y298287D01*
X217678Y294273D01*
X217678Y289928D01*
X219341Y285913D01*
X222413Y282841D01*
X226428Y281178D01*
G37*
G36*
X201028Y281178D02*
X205373Y281178D01*
X209387Y282841D01*
X212459Y285913D01*
X214122Y289928D01*
X214122Y294273D01*
X212459Y298287D01*
X209387Y301359D01*
X205373Y303022D01*
X201028Y303022D01*
X197013Y301359D01*
X193941Y298287D01*
X192278Y294273D01*
X192278Y289928D01*
X193941Y285913D01*
X197013Y282841D01*
X201028Y281178D01*
G37*
G36*
X150228Y281178D02*
X154573Y281178D01*
X158587Y282841D01*
X161659Y285913D01*
X163322Y289928D01*
X163322Y294273D01*
X161659Y298287D01*
X158587Y301359D01*
X154573Y303022D01*
X150228Y303022D01*
X146213Y301359D01*
X143141Y298287D01*
X141478Y294273D01*
X141478Y289928D01*
X143141Y285913D01*
X146213Y282841D01*
X150228Y281178D01*
G37*
G36*
X99428Y281178D02*
X103773Y281178D01*
X107787Y282841D01*
X110859Y285913D01*
X112522Y289928D01*
X112522Y294273D01*
X110859Y298287D01*
X107787Y301359D01*
X103773Y303022D01*
X99428Y303022D01*
X95413Y301359D01*
X92341Y298287D01*
X90678Y294273D01*
X90678Y289928D01*
X92341Y285913D01*
X95413Y282841D01*
X99428Y281178D01*
G37*
G36*
X175628Y281178D02*
X179973Y281178D01*
X183987Y282841D01*
X187059Y285913D01*
X188722Y289928D01*
X188722Y294273D01*
X187059Y298287D01*
X183987Y301359D01*
X179973Y303022D01*
X175628Y303022D01*
X171613Y301359D01*
X168541Y298287D01*
X166878Y294273D01*
X166878Y289928D01*
X168541Y285913D01*
X171613Y282841D01*
X175628Y281178D01*
G37*
G36*
X74028Y281178D02*
X78373Y281178D01*
X82387Y282841D01*
X85459Y285913D01*
X87122Y289928D01*
X87122Y294273D01*
X85459Y298287D01*
X82387Y301359D01*
X78373Y303022D01*
X74028Y303022D01*
X70013Y301359D01*
X66941Y298287D01*
X65278Y294273D01*
X65278Y289928D01*
X66941Y285913D01*
X70013Y282841D01*
X74028Y281178D01*
G37*
G36*
X419862Y269644D02*
X430276Y269644D01*
X430276Y280058D01*
X429425Y280058D01*
X425038Y278240D01*
X421679Y274882D01*
X419862Y270494D01*
X419862Y269644D01*
G37*
G36*
X138137Y198402D02*
X140247Y198402D01*
X142213Y199216D01*
X142669Y199523D01*
X143263Y199644D01*
X205391Y199644D01*
X209799Y204052D01*
X210282Y204377D01*
X210843Y204491D01*
X212810Y205306D01*
X214302Y206798D01*
X215110Y208749D01*
X215110Y210859D01*
X214302Y212810D01*
X212810Y214302D01*
X210859Y215110D01*
X208749Y215110D01*
X206798Y214302D01*
X205306Y212810D01*
X204492Y210844D01*
X204387Y210305D01*
X204052Y209799D01*
X202471Y208218D01*
X201988Y207893D01*
X201393Y207772D01*
X143263Y207772D01*
X142691Y207883D01*
X142214Y208199D01*
X140247Y209014D01*
X137901Y209014D01*
X137374Y209108D01*
X136858Y209427D01*
X136507Y209921D01*
X136377Y210514D01*
X136488Y211110D01*
X136823Y211616D01*
X138102Y212894D01*
X138910Y214845D01*
X138910Y216955D01*
X138102Y218906D01*
X136610Y220398D01*
X134659Y221206D01*
X132549Y221206D01*
X130583Y220392D01*
X130127Y220085D01*
X129533Y219964D01*
X123219Y219964D01*
X122692Y220058D01*
X122176Y220377D01*
X121825Y220871D01*
X121695Y221464D01*
X121806Y222060D01*
X122141Y222566D01*
X123665Y224090D01*
X124148Y224415D01*
X124743Y224536D01*
X205733Y224536D01*
X206305Y224425D01*
X206782Y224109D01*
X208749Y223294D01*
X210859Y223294D01*
X212810Y224102D01*
X214302Y225594D01*
X215110Y227545D01*
X215110Y229655D01*
X214302Y231606D01*
X212810Y233098D01*
X210859Y233906D01*
X208749Y233906D01*
X206783Y233092D01*
X206327Y232785D01*
X205733Y232664D01*
X120745Y232664D01*
X113491Y225410D01*
X113008Y225085D01*
X112413Y224964D01*
X111249Y224964D01*
X110722Y225058D01*
X110206Y225377D01*
X109855Y225871D01*
X109725Y226464D01*
X109836Y227060D01*
X109874Y227117D01*
X109874Y234531D01*
X108844Y235561D01*
X108528Y236022D01*
X108398Y236615D01*
X108509Y237211D01*
X108844Y237717D01*
X120617Y249490D01*
X121100Y249815D01*
X121695Y249936D01*
X224529Y249936D01*
X225101Y249825D01*
X225578Y249509D01*
X227545Y248694D01*
X229655Y248694D01*
X231621Y249508D01*
X232077Y249815D01*
X232671Y249936D01*
X262629Y249936D01*
X263201Y249825D01*
X263678Y249509D01*
X265645Y248694D01*
X267755Y248694D01*
X269706Y249502D01*
X271198Y250994D01*
X272012Y252960D01*
X272117Y253499D01*
X272452Y254005D01*
X281145Y262698D01*
X281628Y263023D01*
X282223Y263144D01*
X355085Y263144D01*
X355657Y263033D01*
X356134Y262717D01*
X358101Y261902D01*
X360211Y261902D01*
X362162Y262710D01*
X363654Y264202D01*
X364462Y266153D01*
X364462Y268263D01*
X363654Y270214D01*
X362162Y271706D01*
X360211Y272514D01*
X358101Y272514D01*
X356135Y271700D01*
X355679Y271393D01*
X355085Y271272D01*
X278225Y271272D01*
X266705Y259752D01*
X266222Y259427D01*
X265661Y259313D01*
X263679Y258492D01*
X263223Y258185D01*
X262629Y258064D01*
X232671Y258064D01*
X232099Y258175D01*
X231622Y258491D01*
X229655Y259306D01*
X227545Y259306D01*
X225579Y258492D01*
X225123Y258185D01*
X224529Y258064D01*
X117697Y258064D01*
X97536Y237903D01*
X97536Y236948D01*
X97434Y236399D01*
X97107Y235888D01*
X96606Y235545D01*
X96012Y235424D01*
X94219Y235424D01*
X93326Y234531D01*
X93326Y227269D01*
X93617Y226978D01*
X93933Y226517D01*
X94063Y225924D01*
X93952Y225328D01*
X93617Y224822D01*
X93326Y224531D01*
X93326Y217269D01*
X93617Y216978D01*
X93933Y216517D01*
X94063Y215924D01*
X93952Y215328D01*
X93617Y214822D01*
X93326Y214531D01*
X93326Y206729D01*
X93345Y206643D01*
X93234Y206046D01*
X92899Y205541D01*
X92310Y204952D01*
X92310Y202424D01*
X110890Y202424D01*
X110890Y205312D01*
X110992Y205861D01*
X111319Y206372D01*
X111820Y206715D01*
X112414Y206836D01*
X120127Y206836D01*
X124681Y211390D01*
X125164Y211715D01*
X125759Y211836D01*
X129533Y211836D01*
X130105Y211725D01*
X130582Y211409D01*
X132549Y210594D01*
X134895Y210594D01*
X135422Y210500D01*
X135938Y210181D01*
X136289Y209687D01*
X136419Y209094D01*
X136308Y208498D01*
X135973Y207992D01*
X134694Y206714D01*
X133886Y204763D01*
X133886Y202653D01*
X134694Y200702D01*
X136186Y199210D01*
X138137Y198402D01*
G37*
G36*
X429425Y256182D02*
X430276Y256182D01*
X430276Y266596D01*
X419862Y266596D01*
X419862Y265745D01*
X421679Y261358D01*
X425038Y257999D01*
X429425Y256182D01*
G37*
G36*
X239128Y90678D02*
X243473Y90678D01*
X247487Y92341D01*
X250559Y95413D01*
X252222Y99428D01*
X252222Y103773D01*
X250559Y107787D01*
X247487Y110859D01*
X245543Y111664D01*
X245066Y111978D01*
X244723Y112478D01*
X244602Y113072D01*
X244602Y129973D01*
X244696Y130499D01*
X245015Y131015D01*
X245509Y131366D01*
X246102Y131497D01*
X246698Y131385D01*
X247204Y131050D01*
X247813Y130441D01*
X251828Y128778D01*
X256173Y128778D01*
X260187Y130441D01*
X261304Y131558D01*
X261743Y131864D01*
X262333Y132004D01*
X262931Y131902D01*
X263442Y131575D01*
X263785Y131075D01*
X263906Y130481D01*
X263906Y113283D01*
X263799Y112722D01*
X263468Y112214D01*
X262965Y111875D01*
X260513Y110859D01*
X257441Y107787D01*
X255778Y103773D01*
X255778Y99428D01*
X257441Y95413D01*
X260513Y92341D01*
X264528Y90678D01*
X268873Y90678D01*
X272887Y92341D01*
X275959Y95413D01*
X277622Y99428D01*
X277622Y103773D01*
X275959Y107787D01*
X272887Y110859D01*
X270943Y111664D01*
X270466Y111978D01*
X270123Y112478D01*
X270002Y113072D01*
X270002Y129973D01*
X270096Y130499D01*
X270415Y131015D01*
X270909Y131366D01*
X271502Y131497D01*
X272098Y131385D01*
X272604Y131050D01*
X273213Y130441D01*
X277228Y128778D01*
X281573Y128778D01*
X285587Y130441D01*
X288659Y133513D01*
X290322Y137528D01*
X290322Y141873D01*
X288659Y145887D01*
X285587Y148959D01*
X281573Y150622D01*
X277228Y150622D01*
X273213Y148959D01*
X272604Y148350D01*
X272165Y148044D01*
X271575Y147904D01*
X270977Y148006D01*
X270466Y148333D01*
X270123Y148833D01*
X270002Y149427D01*
X270002Y156145D01*
X270109Y156706D01*
X270440Y157214D01*
X270943Y157553D01*
X274474Y159016D01*
X277547Y162088D01*
X279210Y166103D01*
X279210Y170447D01*
X278720Y171630D01*
X278604Y172188D01*
X278715Y172785D01*
X279050Y173290D01*
X289560Y183800D01*
X289560Y205733D01*
X289671Y206305D01*
X289987Y206782D01*
X290802Y208749D01*
X290802Y210859D01*
X289994Y212810D01*
X288502Y214302D01*
X286551Y215110D01*
X284441Y215110D01*
X282490Y214302D01*
X280998Y212810D01*
X280190Y210859D01*
X280190Y208749D01*
X281004Y206783D01*
X281311Y206327D01*
X281432Y205733D01*
X281432Y187798D01*
X281321Y187226D01*
X280986Y186721D01*
X273303Y179038D01*
X272831Y178717D01*
X272237Y178591D01*
X271642Y178707D01*
X270460Y179197D01*
X266115Y179197D01*
X262101Y177534D01*
X259028Y174462D01*
X257366Y170448D01*
X257366Y166103D01*
X259028Y162088D01*
X262101Y159016D01*
X262965Y158658D01*
X263442Y158344D01*
X263785Y157844D01*
X263906Y157250D01*
X263906Y148919D01*
X263812Y148393D01*
X263493Y147877D01*
X262999Y147526D01*
X262406Y147396D01*
X261810Y147507D01*
X261304Y147842D01*
X260187Y148959D01*
X256173Y150622D01*
X251828Y150622D01*
X247813Y148959D01*
X247204Y148350D01*
X246765Y148044D01*
X246175Y147904D01*
X245577Y148006D01*
X245066Y148333D01*
X244723Y148833D01*
X244602Y149427D01*
X244602Y156145D01*
X244709Y156706D01*
X245040Y157214D01*
X245543Y157553D01*
X249074Y159016D01*
X252147Y162088D01*
X253810Y166103D01*
X253810Y170448D01*
X252147Y174462D01*
X249074Y177534D01*
X245060Y179197D01*
X240715Y179197D01*
X236701Y177534D01*
X233628Y174462D01*
X231966Y170448D01*
X231966Y166103D01*
X233628Y162088D01*
X236701Y159016D01*
X237565Y158658D01*
X238042Y158344D01*
X238385Y157844D01*
X238506Y157250D01*
X238506Y148919D01*
X238412Y148393D01*
X238093Y147877D01*
X237599Y147526D01*
X237006Y147396D01*
X236410Y147507D01*
X235904Y147842D01*
X234787Y148959D01*
X230773Y150622D01*
X226428Y150622D01*
X222413Y148959D01*
X219341Y145887D01*
X217678Y141873D01*
X217678Y137528D01*
X219341Y133513D01*
X222413Y130441D01*
X226428Y128778D01*
X230773Y128778D01*
X234787Y130441D01*
X235904Y131558D01*
X236343Y131864D01*
X236933Y132004D01*
X237531Y131902D01*
X238042Y131575D01*
X238385Y131075D01*
X238506Y130481D01*
X238506Y113283D01*
X238399Y112722D01*
X238068Y112214D01*
X237565Y111875D01*
X235113Y110859D01*
X232041Y107787D01*
X230378Y103773D01*
X230378Y99428D01*
X232041Y95413D01*
X235113Y92341D01*
X239128Y90678D01*
G37*
G36*
X406760Y199644D02*
X430276Y199644D01*
X430276Y211910D01*
X417807Y211910D01*
X412739Y209811D01*
X408859Y205931D01*
X406760Y200863D01*
X406760Y199644D01*
G37*
G36*
X103124Y195360D02*
X109402Y195360D01*
X110890Y196848D01*
X110890Y199376D01*
X103124Y199376D01*
X103124Y195360D01*
G37*
G36*
X93798Y195360D02*
X100076Y195360D01*
X100076Y199376D01*
X92310Y199376D01*
X92310Y196848D01*
X93798Y195360D01*
G37*
G36*
X417807Y184330D02*
X430276Y184330D01*
X430276Y196596D01*
X406760Y196596D01*
X406760Y195377D01*
X408859Y190309D01*
X412739Y186429D01*
X417807Y184330D01*
G37*
G36*
X132549Y185194D02*
X134659Y185194D01*
X136625Y186008D01*
X137081Y186315D01*
X137675Y186436D01*
X243833Y186436D01*
X244405Y186325D01*
X244882Y186009D01*
X246849Y185194D01*
X248959Y185194D01*
X250910Y186002D01*
X252402Y187494D01*
X253210Y189445D01*
X253210Y191555D01*
X252402Y193506D01*
X250910Y194998D01*
X248959Y195806D01*
X246849Y195806D01*
X244883Y194992D01*
X244427Y194685D01*
X243833Y194564D01*
X137675Y194564D01*
X137103Y194675D01*
X136626Y194991D01*
X134659Y195806D01*
X132549Y195806D01*
X130598Y194998D01*
X129106Y193506D01*
X128298Y191555D01*
X128298Y189445D01*
X129106Y187494D01*
X130598Y186002D01*
X132549Y185194D01*
G37*
G36*
X137528Y90678D02*
X141873Y90678D01*
X145887Y92341D01*
X148959Y95413D01*
X150622Y99428D01*
X150622Y103773D01*
X148959Y107787D01*
X145887Y110859D01*
X143689Y111770D01*
X143212Y112083D01*
X142869Y112583D01*
X142748Y113178D01*
X142748Y130227D01*
X142842Y130753D01*
X143161Y131269D01*
X143655Y131620D01*
X144248Y131751D01*
X144844Y131639D01*
X145350Y131304D01*
X146213Y130441D01*
X150228Y128778D01*
X154573Y128778D01*
X158587Y130441D01*
X159450Y131304D01*
X159889Y131610D01*
X160479Y131750D01*
X161077Y131648D01*
X161588Y131321D01*
X161931Y130821D01*
X162052Y130227D01*
X162052Y113178D01*
X161945Y112617D01*
X161614Y112109D01*
X161111Y111770D01*
X158913Y110859D01*
X155841Y107787D01*
X154178Y103773D01*
X154178Y99428D01*
X155841Y95413D01*
X158913Y92341D01*
X162928Y90678D01*
X167273Y90678D01*
X171287Y92341D01*
X174359Y95413D01*
X176022Y99428D01*
X176022Y103773D01*
X174359Y107787D01*
X171287Y110859D01*
X169089Y111770D01*
X168612Y112083D01*
X168269Y112583D01*
X168148Y113178D01*
X168148Y130227D01*
X168242Y130753D01*
X168561Y131269D01*
X169055Y131620D01*
X169648Y131751D01*
X170244Y131639D01*
X170750Y131304D01*
X171613Y130441D01*
X175628Y128778D01*
X179973Y128778D01*
X183987Y130441D01*
X187059Y133513D01*
X188722Y137528D01*
X188722Y141873D01*
X187059Y145887D01*
X183987Y148959D01*
X179973Y150622D01*
X175628Y150622D01*
X171613Y148959D01*
X170750Y148096D01*
X170311Y147790D01*
X169721Y147650D01*
X169123Y147752D01*
X168612Y148079D01*
X168269Y148579D01*
X168148Y149173D01*
X168148Y157355D01*
X168255Y157916D01*
X168586Y158424D01*
X169089Y158763D01*
X169699Y159016D01*
X172772Y162088D01*
X174435Y166103D01*
X174435Y170448D01*
X172772Y174462D01*
X169699Y177534D01*
X165685Y179197D01*
X161340Y179197D01*
X157326Y177534D01*
X154253Y174462D01*
X152591Y170448D01*
X152591Y166103D01*
X154253Y162088D01*
X157326Y159016D01*
X161111Y157448D01*
X161588Y157134D01*
X161931Y156634D01*
X162052Y156040D01*
X162052Y149173D01*
X161958Y148647D01*
X161639Y148131D01*
X161145Y147780D01*
X160552Y147650D01*
X159956Y147761D01*
X159450Y148096D01*
X158587Y148959D01*
X154573Y150622D01*
X150228Y150622D01*
X146213Y148959D01*
X145350Y148096D01*
X144911Y147790D01*
X144321Y147650D01*
X143723Y147752D01*
X143212Y148079D01*
X142869Y148579D01*
X142748Y149173D01*
X142748Y157355D01*
X142855Y157916D01*
X143186Y158424D01*
X143689Y158763D01*
X144299Y159016D01*
X147372Y162088D01*
X149035Y166103D01*
X149035Y170448D01*
X147372Y174462D01*
X144299Y177534D01*
X140285Y179197D01*
X135940Y179197D01*
X131926Y177534D01*
X128853Y174462D01*
X127191Y170448D01*
X127191Y166103D01*
X128853Y162088D01*
X131926Y159016D01*
X135711Y157448D01*
X136188Y157134D01*
X136531Y156634D01*
X136652Y156040D01*
X136652Y149173D01*
X136558Y148647D01*
X136239Y148131D01*
X135745Y147780D01*
X135152Y147650D01*
X134556Y147761D01*
X134050Y148096D01*
X133187Y148959D01*
X129173Y150622D01*
X124828Y150622D01*
X120813Y148959D01*
X117741Y145887D01*
X116078Y141873D01*
X116078Y137528D01*
X117741Y133513D01*
X120813Y130441D01*
X124828Y128778D01*
X129173Y128778D01*
X133187Y130441D01*
X134050Y131304D01*
X134489Y131610D01*
X135079Y131750D01*
X135677Y131648D01*
X136188Y131321D01*
X136531Y130821D01*
X136652Y130227D01*
X136652Y113178D01*
X136545Y112617D01*
X136214Y112109D01*
X135711Y111770D01*
X133513Y110859D01*
X130441Y107787D01*
X128778Y103773D01*
X128778Y99428D01*
X130441Y95413D01*
X133513Y92341D01*
X137528Y90678D01*
G37*
G36*
X429628Y152198D02*
X433973Y152198D01*
X437987Y153861D01*
X441059Y156933D01*
X442722Y160948D01*
X442722Y165293D01*
X441059Y169307D01*
X437987Y172379D01*
X433973Y174042D01*
X429628Y174042D01*
X425613Y172379D01*
X422541Y169307D01*
X420878Y165293D01*
X420878Y160948D01*
X422541Y156933D01*
X425613Y153861D01*
X429628Y152198D01*
G37*
G36*
X327825Y127762D02*
X328676Y127762D01*
X328676Y151638D01*
X327825Y151638D01*
X323438Y149821D01*
X320079Y146462D01*
X318358Y142307D01*
X318070Y141856D01*
X317578Y141501D01*
X316987Y141366D01*
X316389Y141473D01*
X315881Y141804D01*
X315542Y142307D01*
X314059Y145887D01*
X310987Y148959D01*
X306973Y150622D01*
X302628Y150622D01*
X298613Y148959D01*
X295541Y145887D01*
X293878Y141873D01*
X293878Y137528D01*
X295541Y133513D01*
X298613Y130441D01*
X302628Y128778D01*
X306973Y128778D01*
X310987Y130441D01*
X314059Y133513D01*
X315542Y137093D01*
X315830Y137544D01*
X316322Y137899D01*
X316914Y138034D01*
X317511Y137927D01*
X318019Y137596D01*
X318358Y137093D01*
X320079Y132938D01*
X323438Y129579D01*
X327825Y127762D01*
G37*
G36*
X201028Y128778D02*
X205373Y128778D01*
X209387Y130441D01*
X212459Y133513D01*
X214122Y137528D01*
X214122Y141873D01*
X212459Y145887D01*
X209387Y148959D01*
X205373Y150622D01*
X201028Y150622D01*
X197013Y148959D01*
X193941Y145887D01*
X192278Y141873D01*
X192278Y137528D01*
X193941Y133513D01*
X197013Y130441D01*
X201028Y128778D01*
G37*
G36*
X99428Y128778D02*
X103773Y128778D01*
X107787Y130441D01*
X110859Y133513D01*
X112522Y137528D01*
X112522Y141873D01*
X110859Y145887D01*
X107787Y148959D01*
X103773Y150622D01*
X99428Y150622D01*
X95413Y148959D01*
X92341Y145887D01*
X90678Y141873D01*
X90678Y137528D01*
X92341Y133513D01*
X95413Y130441D01*
X99428Y128778D01*
G37*
G36*
X74028Y128778D02*
X78373Y128778D01*
X82387Y130441D01*
X85459Y133513D01*
X87122Y137528D01*
X87122Y141873D01*
X85459Y145887D01*
X82387Y148959D01*
X78373Y150622D01*
X74028Y150622D01*
X70013Y148959D01*
X66941Y145887D01*
X65278Y141873D01*
X65278Y137528D01*
X66941Y133513D01*
X70013Y130441D01*
X74028Y128778D01*
G37*
G36*
X314358Y109474D02*
X323756Y109474D01*
X323756Y118872D01*
X320756Y118872D01*
X314358Y112474D01*
X314358Y109474D01*
G37*
G36*
X326804Y97028D02*
X329804Y97028D01*
X334921Y102145D01*
X335382Y102461D01*
X335974Y102591D01*
X336570Y102480D01*
X337076Y102145D01*
X341177Y98044D01*
X349383Y98044D01*
X355186Y103847D01*
X355186Y112053D01*
X349383Y117856D01*
X341177Y117856D01*
X337076Y113755D01*
X336615Y113439D01*
X336023Y113309D01*
X335426Y113420D01*
X334921Y113755D01*
X329804Y118872D01*
X326804Y118872D01*
X326804Y97028D01*
G37*
G36*
X320756Y97028D02*
X323756Y97028D01*
X323756Y106426D01*
X314358Y106426D01*
X314358Y103426D01*
X320756Y97028D01*
G37*
G36*
X366210Y41524D02*
X378476Y41524D01*
X378476Y65040D01*
X377257Y65040D01*
X372189Y62941D01*
X368309Y59061D01*
X366210Y53993D01*
X366210Y41524D01*
G37*
G36*
X381524Y41524D02*
X393790Y41524D01*
X393790Y53993D01*
X391691Y59061D01*
X387811Y62941D01*
X382743Y65040D01*
X381524Y65040D01*
X381524Y41524D01*
G37*
G36*
X307459Y15976D02*
X312541Y15976D01*
X317236Y17921D01*
X320829Y21514D01*
X322774Y26209D01*
X322774Y53791D01*
X320829Y58486D01*
X317236Y62079D01*
X312541Y64024D01*
X307459Y64024D01*
X302764Y62079D01*
X299171Y58486D01*
X297226Y53791D01*
X297226Y26209D01*
X299171Y21514D01*
X302764Y17921D01*
X307459Y15976D01*
G37*
G36*
X272459Y15976D02*
X277541Y15976D01*
X282236Y17921D01*
X285829Y21514D01*
X287774Y26209D01*
X287774Y53791D01*
X285829Y58486D01*
X282236Y62079D01*
X277541Y64024D01*
X272459Y64024D01*
X267764Y62079D01*
X264171Y58486D01*
X262226Y53791D01*
X262226Y26209D01*
X264171Y21514D01*
X267764Y17921D01*
X272459Y15976D01*
G37*
G36*
X237459Y15976D02*
X242541Y15976D01*
X247236Y17921D01*
X250829Y21514D01*
X252774Y26209D01*
X252774Y53791D01*
X250829Y58486D01*
X247236Y62079D01*
X242541Y64024D01*
X237459Y64024D01*
X232764Y62079D01*
X229171Y58486D01*
X227226Y53791D01*
X227226Y26209D01*
X229171Y21514D01*
X232764Y17921D01*
X237459Y15976D01*
G37*
G36*
X202459Y15976D02*
X207541Y15976D01*
X212236Y17921D01*
X215829Y21514D01*
X217774Y26209D01*
X217774Y53791D01*
X215829Y58486D01*
X212236Y62079D01*
X207541Y64024D01*
X202459Y64024D01*
X197764Y62079D01*
X194171Y58486D01*
X192226Y53791D01*
X192226Y26209D01*
X194171Y21514D01*
X197764Y17921D01*
X202459Y15976D01*
G37*
G36*
X132459Y15976D02*
X137541Y15976D01*
X142236Y17921D01*
X145829Y21514D01*
X147774Y26209D01*
X147774Y53791D01*
X145829Y58486D01*
X142236Y62079D01*
X137541Y64024D01*
X132459Y64024D01*
X127764Y62079D01*
X124171Y58486D01*
X122226Y53791D01*
X122226Y26209D01*
X124171Y21514D01*
X127764Y17921D01*
X132459Y15976D01*
G37*
G36*
X97459Y15976D02*
X102541Y15976D01*
X107236Y17921D01*
X110829Y21514D01*
X112774Y26209D01*
X112774Y53791D01*
X110829Y58486D01*
X107236Y62079D01*
X102541Y64024D01*
X97459Y64024D01*
X92764Y62079D01*
X89171Y58486D01*
X87226Y53791D01*
X87226Y26209D01*
X89171Y21514D01*
X92764Y17921D01*
X97459Y15976D01*
G37*
G36*
X62459Y15976D02*
X67541Y15976D01*
X72236Y17921D01*
X75829Y21514D01*
X77774Y26209D01*
X77774Y53791D01*
X75829Y58486D01*
X72236Y62079D01*
X67541Y64024D01*
X62459Y64024D01*
X57764Y62079D01*
X54171Y58486D01*
X52226Y53791D01*
X52226Y26209D01*
X54171Y21514D01*
X57764Y17921D01*
X62459Y15976D01*
G37*
G36*
X27459Y15976D02*
X32541Y15976D01*
X37236Y17921D01*
X40829Y21514D01*
X42774Y26209D01*
X42774Y53791D01*
X40829Y58486D01*
X37236Y62079D01*
X32541Y64024D01*
X27459Y64024D01*
X22764Y62079D01*
X19171Y58486D01*
X17226Y53791D01*
X17226Y26209D01*
X19171Y21514D01*
X22764Y17921D01*
X27459Y15976D01*
G37*
G36*
X412459Y15976D02*
X417541Y15976D01*
X422236Y17921D01*
X425829Y21514D01*
X427774Y26209D01*
X427774Y53791D01*
X425829Y58486D01*
X422236Y62079D01*
X417541Y64024D01*
X412459Y64024D01*
X407764Y62079D01*
X404171Y58486D01*
X402226Y53791D01*
X402226Y26209D01*
X404171Y21514D01*
X407764Y17921D01*
X412459Y15976D01*
G37*
G36*
X342459Y15976D02*
X347541Y15976D01*
X352236Y17921D01*
X355829Y21514D01*
X357774Y26209D01*
X357774Y53791D01*
X355829Y58486D01*
X352236Y62079D01*
X347541Y64024D01*
X342459Y64024D01*
X337764Y62079D01*
X334171Y58486D01*
X332226Y53791D01*
X332226Y26209D01*
X334171Y21514D01*
X337764Y17921D01*
X342459Y15976D01*
G37*
G36*
X167459Y15976D02*
X172541Y15976D01*
X177236Y17921D01*
X180829Y21514D01*
X182774Y26209D01*
X182774Y53791D01*
X180829Y58486D01*
X177236Y62079D01*
X172541Y64024D01*
X167459Y64024D01*
X162764Y62079D01*
X159171Y58486D01*
X157226Y53791D01*
X157226Y26209D01*
X159171Y21514D01*
X162764Y17921D01*
X167459Y15976D01*
G37*
G36*
X381524Y14960D02*
X382743Y14960D01*
X387811Y17059D01*
X391691Y20939D01*
X393790Y26007D01*
X393790Y38476D01*
X381524Y38476D01*
X381524Y14960D01*
G37*
G36*
X377257Y14960D02*
X378476Y14960D01*
X378476Y38476D01*
X366210Y38476D01*
X366210Y26007D01*
X368309Y20939D01*
X372189Y17059D01*
X377257Y14960D01*
G37*
%LPD*%
D10*
X355600Y292100D03*
X330200Y292100D03*
X304800Y292100D03*
X279400Y292100D03*
X254000Y292100D03*
X228600Y292100D03*
X203200Y292100D03*
X177800Y292100D03*
X152400Y292100D03*
X127000Y292100D03*
X101600Y292100D03*
X76200Y292100D03*
X76200Y139700D03*
X101600Y139700D03*
X127000Y139700D03*
X152400Y139700D03*
X177800Y139700D03*
X203200Y139700D03*
X228600Y139700D03*
X254000Y139700D03*
X279400Y139700D03*
X304800Y139700D03*
X330200Y139700D03*
X355600Y139700D03*
X138113Y168275D03*
X163513Y168275D03*
X268288Y168275D03*
X242888Y168275D03*
D11*
X415000Y381450D02*
X415000Y403950D01*
X380000Y403950D02*
X380000Y381450D01*
X345000Y381450D02*
X345000Y403950D01*
X310000Y403950D02*
X310000Y381450D01*
X275000Y381450D02*
X275000Y403950D01*
X240000Y403950D02*
X240000Y381450D01*
X205000Y381450D02*
X205000Y403950D01*
X170000Y403950D02*
X170000Y381450D01*
X135000Y381450D02*
X135000Y403950D01*
X100000Y403950D02*
X100000Y381450D01*
X65000Y381450D02*
X65000Y403950D01*
X30000Y403950D02*
X30000Y381450D01*
X30000Y51250D02*
X30000Y28750D01*
X65000Y28750D02*
X65000Y51250D01*
X100000Y51250D02*
X100000Y28750D01*
X135000Y28750D02*
X135000Y51250D01*
X170000Y51250D02*
X170000Y28750D01*
X205000Y28750D02*
X205000Y51250D01*
X240000Y51250D02*
X240000Y28750D01*
X275000Y28750D02*
X275000Y51250D01*
X310000Y51250D02*
X310000Y28750D01*
X345000Y28750D02*
X345000Y51250D01*
X380000Y51250D02*
X380000Y28750D01*
X415000Y28750D02*
X415000Y51250D01*
D10*
X304800Y330200D03*
X279400Y330200D03*
X254000Y330200D03*
X228600Y330200D03*
D12*
X64850Y187900D03*
X64850Y243900D03*
D13*
X101600Y200900D03*
X101600Y210900D03*
X101600Y220900D03*
X101600Y230900D03*
D11*
X420550Y198120D02*
X443050Y198120D01*
X443050Y233120D02*
X420550Y233120D01*
D10*
X431800Y163120D03*
X431800Y268120D03*
X165100Y101600D03*
X139700Y101600D03*
D14*
X345280Y107950D03*
X325280Y107950D03*
D10*
X241300Y101600D03*
X266700Y101600D03*
D15*
X88900Y165100D03*
X209804Y171704D03*
X48260Y365760D03*
X83820Y365760D03*
X116840Y365760D03*
X154940Y365760D03*
X187960Y365760D03*
X223520Y365760D03*
X256540Y365760D03*
X360680Y365760D03*
X368300Y330200D03*
X63500Y317500D03*
X76200Y266700D03*
X48260Y68580D03*
X83820Y68580D03*
X119380Y68580D03*
X154940Y68580D03*
X187960Y68580D03*
X223520Y68580D03*
X256540Y68580D03*
X292100Y68580D03*
X327660Y68580D03*
X360680Y68580D03*
X17780Y68580D03*
X17780Y365760D03*
X63500Y116840D03*
X241300Y309880D03*
X254000Y117856D03*
X155448Y218948D03*
D16*
X114728Y220900D02*
X101600Y220900D01*
X114728Y220900D02*
X122428Y228600D01*
D15*
X209804Y228600D03*
D16*
X122428Y228600D01*
X228600Y254000D02*
X266700Y254000D01*
D15*
X228600Y254000D03*
X359156Y267208D03*
X266700Y254000D03*
D16*
X228600Y254000D02*
X119380Y254000D01*
X101600Y236220D02*
X101600Y230900D01*
X101600Y236220D02*
X119380Y254000D01*
X279908Y267208D02*
X359156Y267208D01*
X279908Y267208D02*
X266700Y254000D01*
D15*
X209804Y209804D03*
X139192Y203708D03*
D16*
X203708Y203708D01*
X209804Y209804D01*
D15*
X247904Y190500D03*
X133604Y190500D03*
D16*
X247904Y190500D01*
D17*
X398220Y233120D02*
X431800Y233120D01*
X381000Y215900D02*
X381000Y165100D01*
X355600Y139700D01*
X381000Y215900D02*
X398220Y233120D01*
D18*
X242888Y168275D02*
X241554Y166942D01*
X241554Y101854D01*
X241300Y101600D01*
D16*
X268288Y168275D02*
X285496Y185484D01*
X285496Y209804D01*
D15*
X285496Y209804D03*
D18*
X268288Y168275D02*
X266954Y166942D01*
X266954Y101854D01*
X266700Y101600D01*
X165100Y166688D02*
X163513Y168275D01*
X165100Y166688D02*
X165100Y101600D01*
X139700Y166688D02*
X138113Y168275D01*
X139700Y166688D02*
X139700Y101600D01*
D16*
X359664Y249428D02*
X381000Y270764D01*
X381000Y296672D01*
D15*
X317500Y241300D03*
X133604Y215900D03*
X359664Y249428D03*
D16*
X381000Y296672D02*
X366522Y311150D01*
X359664Y249428D02*
X351536Y241300D01*
X317500Y241300D01*
X133604Y241300D01*
X118444Y210900D02*
X101600Y210900D01*
X123444Y215900D02*
X133604Y215900D01*
X123444Y215900D02*
X118444Y210900D01*
X298450Y311150D02*
X366522Y311150D01*
X298450Y311150D02*
X279400Y330200D01*
D15*
X133604Y241300D03*
M02*
