G04 EAGLE Gerber RS-274X export*
G75*
%MOMM*%
%FSLAX34Y34*%
%LPD*%
%IN*%
%IPPOS*%
%AMOC8*
5,1,8,0,0,1.08239X$1,22.5*%
G01*
G04 Define Apertures*
%ADD10C,0.254000*%
D10*
X0Y12700D02*
X48Y11593D01*
X193Y10495D01*
X433Y9413D01*
X766Y8356D01*
X1190Y7333D01*
X1701Y6350D01*
X2297Y5416D01*
X2971Y4537D01*
X3720Y3720D01*
X4537Y2971D01*
X5416Y2297D01*
X6350Y1701D01*
X7333Y1190D01*
X8356Y766D01*
X9413Y433D01*
X10495Y193D01*
X11593Y48D01*
X12700Y0D01*
X444500Y0D01*
X445607Y48D01*
X446705Y193D01*
X447787Y433D01*
X448844Y766D01*
X449867Y1190D01*
X450850Y1701D01*
X451784Y2297D01*
X452663Y2971D01*
X453480Y3720D01*
X454229Y4537D01*
X454903Y5416D01*
X455499Y6350D01*
X456010Y7333D01*
X456434Y8356D01*
X456767Y9413D01*
X457007Y10495D01*
X457152Y11593D01*
X457200Y12700D01*
X457200Y419100D01*
X457152Y420207D01*
X457007Y421305D01*
X456767Y422387D01*
X456434Y423444D01*
X456010Y424467D01*
X455499Y425450D01*
X454903Y426384D01*
X454229Y427263D01*
X453480Y428080D01*
X452663Y428829D01*
X451784Y429503D01*
X450850Y430099D01*
X449867Y430610D01*
X448844Y431034D01*
X447787Y431367D01*
X446705Y431607D01*
X445607Y431752D01*
X444500Y431800D01*
X12700Y431800D01*
X11593Y431752D01*
X10495Y431607D01*
X9413Y431367D01*
X8356Y431034D01*
X7333Y430610D01*
X6350Y430099D01*
X5416Y429503D01*
X4537Y428829D01*
X3720Y428080D01*
X2971Y427263D01*
X2297Y426384D01*
X1701Y425450D01*
X1190Y424467D01*
X766Y423444D01*
X433Y422387D01*
X193Y421305D01*
X48Y420207D01*
X0Y419100D01*
X0Y304800D01*
X48Y303693D01*
X193Y302595D01*
X433Y301513D01*
X766Y300456D01*
X1190Y299433D01*
X1701Y298450D01*
X2297Y297516D01*
X2971Y296637D01*
X3720Y295820D01*
X4537Y295071D01*
X5416Y294397D01*
X6350Y293801D01*
X7333Y293290D01*
X8356Y292866D01*
X9413Y292533D01*
X10495Y292293D01*
X11593Y292148D01*
X12700Y292100D01*
X38100Y292100D01*
X39207Y292052D01*
X40305Y291907D01*
X41387Y291667D01*
X42444Y291334D01*
X43467Y290910D01*
X44450Y290399D01*
X45384Y289803D01*
X46263Y289129D01*
X47080Y288380D01*
X47829Y287563D01*
X48503Y286684D01*
X49099Y285750D01*
X49610Y284767D01*
X50034Y283744D01*
X50367Y282687D01*
X50607Y281605D01*
X50752Y280507D01*
X50800Y279400D01*
X50800Y152400D01*
X50752Y151293D01*
X50607Y150195D01*
X50367Y149113D01*
X50034Y148056D01*
X49610Y147033D01*
X49099Y146050D01*
X48503Y145116D01*
X47829Y144237D01*
X47080Y143420D01*
X46263Y142671D01*
X45384Y141997D01*
X44450Y141401D01*
X43467Y140890D01*
X42444Y140466D01*
X41387Y140133D01*
X40305Y139893D01*
X39207Y139748D01*
X38100Y139700D01*
X12700Y139700D01*
X11593Y139652D01*
X10495Y139507D01*
X9413Y139267D01*
X8356Y138934D01*
X7333Y138510D01*
X6350Y137999D01*
X5416Y137403D01*
X4537Y136729D01*
X3720Y135980D01*
X2971Y135163D01*
X2297Y134284D01*
X1701Y133350D01*
X1190Y132367D01*
X766Y131344D01*
X433Y130287D01*
X193Y129205D01*
X48Y128107D01*
X0Y127000D01*
X0Y12700D01*
M02*
