G04 EAGLE Gerber RS-274X export*
G75*
%MOMM*%
%FSLAX34Y34*%
%LPD*%
%INSoldermask Top*%
%IPPOS*%
%AMOC8*
5,1,8,0,0,1.08239X$1,22.5*%
G01*
G04 Define Apertures*
%ADD10C,2.082800*%
%ADD11R,2.203200X1.403200*%
%ADD12R,1.553200X0.803200*%
%ADD13C,2.453200*%
%ADD14R,1.473200X0.863600*%
%ADD15R,1.403200X1.003200*%
%ADD16R,0.863600X1.473200*%
%ADD17C,3.505200*%
%ADD18R,1.203200X1.303200*%
%ADD19C,0.505344*%
%ADD20P,2.03446X8X202.5*%
%ADD21R,1.403200X0.753200*%
%ADD22R,1.303200X1.203200*%
%ADD23C,0.959600*%
G36*
X170688Y196215D02*
X170688Y200025D01*
X175768Y200025D01*
X175768Y196215D01*
X170688Y196215D01*
G37*
G36*
X226655Y224380D02*
X230465Y224380D01*
X230465Y219300D01*
X226655Y219300D01*
X226655Y224380D01*
G37*
G36*
X265395Y224380D02*
X269205Y224380D01*
X269205Y219300D01*
X265395Y219300D01*
X265395Y224380D01*
G37*
G36*
X309880Y226695D02*
X309880Y230505D01*
X314960Y230505D01*
X314960Y226695D01*
X309880Y226695D01*
G37*
G36*
X320040Y226695D02*
X320040Y230505D01*
X325120Y230505D01*
X325120Y226695D01*
X320040Y226695D01*
G37*
G36*
X343408Y164211D02*
X343408Y168021D01*
X348488Y168021D01*
X348488Y164211D01*
X343408Y164211D01*
G37*
G36*
X352044Y227203D02*
X352044Y231013D01*
X357124Y231013D01*
X357124Y227203D01*
X352044Y227203D01*
G37*
G36*
X362204Y227203D02*
X362204Y231013D01*
X367284Y231013D01*
X367284Y227203D01*
X362204Y227203D01*
G37*
D10*
X355600Y292100D03*
X330200Y292100D03*
X304800Y292100D03*
X279400Y292100D03*
X254000Y292100D03*
X228600Y292100D03*
X203200Y292100D03*
X177800Y292100D03*
X152400Y292100D03*
X127000Y292100D03*
X101600Y292100D03*
X76200Y292100D03*
X76200Y139700D03*
X101600Y139700D03*
X127000Y139700D03*
X152400Y139700D03*
X177800Y139700D03*
X203200Y139700D03*
X228600Y139700D03*
X254000Y139700D03*
X279400Y139700D03*
X304800Y139700D03*
X330200Y139700D03*
X355600Y139700D03*
X138113Y168275D03*
X163513Y168275D03*
X268288Y168275D03*
X242888Y168275D03*
D11*
X64850Y243900D03*
X64850Y187900D03*
D12*
X101600Y230900D03*
X101600Y220900D03*
X101600Y210900D03*
X101600Y200900D03*
D13*
X415000Y381450D02*
X415000Y403950D01*
X380000Y403950D02*
X380000Y381450D01*
X345000Y381450D02*
X345000Y403950D01*
X310000Y403950D02*
X310000Y381450D01*
X275000Y381450D02*
X275000Y403950D01*
X240000Y403950D02*
X240000Y381450D01*
X205000Y381450D02*
X205000Y403950D01*
X170000Y403950D02*
X170000Y381450D01*
X135000Y381450D02*
X135000Y403950D01*
X100000Y403950D02*
X100000Y381450D01*
X65000Y381450D02*
X65000Y403950D01*
X30000Y403950D02*
X30000Y381450D01*
X30000Y51250D02*
X30000Y28750D01*
X65000Y28750D02*
X65000Y51250D01*
X100000Y51250D02*
X100000Y28750D01*
X135000Y28750D02*
X135000Y51250D01*
X170000Y51250D02*
X170000Y28750D01*
X205000Y28750D02*
X205000Y51250D01*
X240000Y51250D02*
X240000Y28750D01*
X275000Y28750D02*
X275000Y51250D01*
X310000Y51250D02*
X310000Y28750D01*
X345000Y28750D02*
X345000Y51250D01*
X380000Y51250D02*
X380000Y28750D01*
X415000Y28750D02*
X415000Y51250D01*
D14*
X267300Y206346D03*
X267300Y216760D03*
X267300Y227174D03*
X228560Y206346D03*
X228560Y216760D03*
X228560Y227174D03*
D10*
X304800Y330200D03*
X279400Y330200D03*
X254000Y330200D03*
X228600Y330200D03*
D13*
X420550Y198120D02*
X443050Y198120D01*
X443050Y233120D02*
X420550Y233120D01*
D15*
X298704Y181500D03*
X298704Y199500D03*
X330200Y181500D03*
X330200Y199500D03*
X342900Y267064D03*
X342900Y249064D03*
X374396Y267064D03*
X374396Y249064D03*
D16*
X327914Y228600D03*
X317500Y228600D03*
X307086Y228600D03*
X370078Y229108D03*
X359664Y229108D03*
X349250Y229108D03*
D17*
X25400Y317500D03*
X431800Y317500D03*
X25400Y114300D03*
X431800Y114300D03*
D10*
X431800Y163120D03*
X431800Y268120D03*
X165100Y101600D03*
X139700Y101600D03*
D18*
X362204Y182000D03*
X362204Y199000D03*
D19*
X377510Y157280D02*
X384490Y157280D01*
X384490Y150300D01*
X377510Y150300D01*
X377510Y157280D01*
X377510Y155100D02*
X384490Y155100D01*
X384490Y174820D02*
X377510Y174820D01*
X384490Y174820D02*
X384490Y167840D01*
X377510Y167840D01*
X377510Y174820D01*
X377510Y172640D02*
X384490Y172640D01*
D20*
X345280Y107950D03*
X325280Y107950D03*
D16*
X351155Y166116D03*
X340741Y166116D03*
D10*
X241300Y101600D03*
X266700Y101600D03*
D21*
X190801Y231800D03*
X190801Y241300D03*
X190801Y250800D03*
X164799Y250800D03*
X164799Y231800D03*
D22*
X186300Y215900D03*
X169300Y215900D03*
X169300Y266700D03*
X186300Y266700D03*
D16*
X188722Y198120D03*
X178308Y198120D03*
X167894Y198120D03*
D23*
X88900Y165100D03*
X209804Y171704D03*
X48260Y365760D03*
X83820Y365760D03*
X116840Y365760D03*
X154940Y365760D03*
X187960Y365760D03*
X223520Y365760D03*
X256540Y365760D03*
X360680Y365760D03*
X368300Y330200D03*
X63500Y317500D03*
X76200Y266700D03*
X48260Y68580D03*
X83820Y68580D03*
X119380Y68580D03*
X154940Y68580D03*
X187960Y68580D03*
X223520Y68580D03*
X256540Y68580D03*
X292100Y68580D03*
X327660Y68580D03*
X360680Y68580D03*
X17780Y68580D03*
X17780Y365760D03*
X63500Y116840D03*
X241300Y309880D03*
X254000Y117856D03*
X155448Y218948D03*
X209804Y228600D03*
X228600Y254000D03*
X359156Y267208D03*
X266700Y254000D03*
X209804Y209804D03*
X139192Y203708D03*
X247904Y190500D03*
X133604Y190500D03*
X285496Y209804D03*
X317500Y241300D03*
X133604Y215900D03*
X359664Y249428D03*
X133604Y241300D03*
M02*
